PathFileType	4	(X/Y/Z)	c:/Users/goper/Files/vsCode/490R/osim_files/C17/C17_Slow_03.trc
DataRate	CameraRate	NumFrames	NumMarkers	Units                	OrigDataRate	OrigDataStartFrame	OrigNumFrames
250.00	250.00	4	36	mm	250.0	1486	2377
                Frame#	Time	LPSIS			LASIS			LTH1			LTH2			LTH3			LTH4			LLFE			LMFE			LSH1			LSH2			LSH3			LSH4			LLMAL			LMMAL			LCAL			LMTP5			LTOE			LMTP1			RPSIS			RASIS			RTH1			RTH2			RTH3			RTH4			RLFE			RMFE			RSH1			RSH2			RSH3			RSH4			RLMAL			RMMAL			RCAL			RMTP1			RTOE			RMTP5		
		X1	Y1	Z1	X2	Y2	Z2	X3	Y3	Z3	X4	Y4	Z4	X5	Y5	Z5	X6	Y6	Z6	X7	Y7	Z7	X8	Y8	Z8	X9	Y9	Z9	X10	Y10	Z10	X11	Y11	Z11	X12	Y12	Z12	X13	Y13	Z13	X14	Y14	Z14	X15	Y15	Z15	X16	Y16	Z16	X17	Y17	Z17	X18	Y18	Z18	X19	Y19	Z19	X20	Y20	Z20	X21	Y21	Z21	X22	Y22	Z22	X23	Y23	Z23	X24	Y24	Z24	X25	Y25	Z25	X26	Y26	Z26	X27	Y27	Z27	X28	Y28	Z28	X29	Y29	Z29	X30	Y30	Z30	X31	Y31	Z31	X32	Y32	Z32	X33	Y33	Z33	X34	Y34	Z34	X35	Y35	Z35	X36	Y36	Z36

1486	5.94000	-1437.71753	1097.93628	301.99557	-1631.04321	1048.27344	404.36359	-1537.96680	719.35632	425.18289	-1547.12256	676.93158	414.96283	-1599.15967	727.67438	426.94003	-1601.62891	683.88000	417.30038	-1547.70850	511.76132	376.66434	-1551.19153	520.05658	253.99272	-1467.90637	285.05978	359.56915	-1465.49683	242.32327	351.13791	-1528.79590	275.00607	360.55026	-1517.94861	233.47127	351.71783	-1471.24951	101.72240	321.86981	-1485.41479	113.39487	234.74928	-1394.46167	66.84353	274.57962	-1585.70630	46.49306	340.37534	-1644.17920	64.46905	273.47751	-1625.04028	45.28739	224.30879	-1442.83252	1090.31018	228.78197	-1621.79163	1059.49182	133.96936	-1644.19019	768.24646	67.70331	-1659.35339	724.33771	72.96329	-1702.17651	784.02673	79.89664	-1709.74268	737.42566	79.39648	-1738.96667	520.06995	90.47982	-1728.25305	529.23004	217.02850	-1616.65320	347.04990	80.97334	-1611.59595	302.97580	93.55597	-1678.17761	333.67572	89.08817	-1663.13269	289.17004	98.89346	-1570.27393	133.83154	122.26962	-1608.16699	144.20189	209.18254	-1500.03613	108.38148	175.42044	-1728.23413	56.15871	197.41298	-1742.76843	80.89783	152.26393	-1680.17834	55.67312	89.38754
1487	5.94400	-1442.31104	1097.74512	301.89716	-1636.34729	1048.71631	404.01315	-1539.83679	719.58057	424.06989	-1549.10657	677.09235	414.89435	-1601.49622	727.48016	426.93375	-1603.63208	683.69403	417.17941	-1548.69116	511.83392	376.70163	-1552.12817	520.13348	253.98433	-1468.21667	285.25742	359.47333	-1465.83118	242.47887	351.14777	-1529.20935	275.09146	360.64215	-1518.04822	233.45729	351.77902	-1471.40112	101.80613	321.84909	-1485.38538	113.54668	234.78712	-1394.57654	66.96260	274.61172	-1585.62854	46.50451	340.43921	-1644.03345	64.42520	273.50681	-1625.11316	45.29358	224.34254	-1447.43213	1090.17444	228.69313	-1626.52185	1059.47620	134.40228	-1649.70374	768.26520	67.63924	-1665.29102	724.65320	73.03242	-1707.72095	784.49341	80.25021	-1716.03613	738.01776	79.59795	-1746.02734	520.77820	90.96453	-1734.84778	529.72229	217.45915	-1627.71973	345.01318	81.29764	-1624.74756	300.10901	95.62296	-1689.53247	333.08060	89.55261	-1675.55945	287.83322	99.63885	-1586.20789	130.85855	122.62946	-1623.52344	142.18546	209.64354	-1516.23303	104.02411	175.56474	-1745.69312	56.65148	198.39705	-1759.68103	81.62135	153.17644	-1697.86597	54.96948	90.19888
1488	5.94800	-1446.72400	1097.55334	301.81488	-1640.68750	1048.43701	404.17715	-1542.61755	719.73254	425.05087	-1551.08167	677.27679	414.78436	-1603.82239	727.34888	426.90237	-1605.66248	683.57617	417.08698	-1549.50488	511.97101	376.69766	-1553.16650	520.19031	254.00688	-1468.53369	285.45856	359.42313	-1466.18860	242.60606	351.22278	-1529.58618	275.15631	360.69855	-1518.27795	233.57745	351.82968	-1471.50464	101.92840	321.84744	-1485.64502	113.55956	234.73302	-1394.67383	67.12168	274.61044	-1585.63171	46.46065	340.45126	-1644.06775	64.34214	273.53568	-1625.22339	45.33295	224.37254	-1452.04761	1089.91187	228.49495	-1630.92529	1059.39319	134.62738	-1655.07495	768.42529	67.48195	-1671.17651	724.85443	73.14208	-1713.32947	784.91608	80.50376	-1721.88171	738.47778	79.90342	-1753.10059	521.46521	91.48431	-1741.33960	530.04950	217.98683	-1638.82617	343.18356	81.57104	-1636.90210	298.05035	96.07379	-1700.92334	332.51413	90.09084	-1687.86096	286.97253	100.26849	-1602.14148	128.16014	123.24229	-1638.85168	140.28506	210.11171	-1532.74646	99.82577	175.86612	-1762.90295	57.24088	199.41672	-1776.66858	82.52487	154.08972	-1715.48450	54.39845	91.04852
1489	5.95200	-1451.11450	1097.35962	301.63016	-1644.78589	1047.49890	404.85400	-1545.65515	719.63934	425.72220	-1553.20349	677.46417	414.62210	-1606.15649	727.14960	426.88080	-1607.77490	683.41272	417.02274	-1550.56360	512.13275	376.66498	-1554.03235	520.25873	253.91711	-1469.03296	285.65775	359.39041	-1466.58386	242.78018	351.21704	-1529.85291	275.20685	360.77319	-1518.80811	233.79926	351.96167	-1471.60950	102.05032	321.82950	-1485.77112	113.66502	234.73100	-1394.79626	67.29607	274.62851	-1585.63647	46.43859	340.48523	-1644.07568	64.26866	273.55850	-1625.14062	45.28884	224.36523	-1456.56311	1089.71045	228.41562	-1635.74243	1059.38318	134.80615	-1661.79907	768.68933	68.21564	-1677.02380	725.00128	73.37577	-1718.75806	785.26990	80.83183	-1727.62207	738.87805	80.24370	-1760.04675	522.14276	91.97678	-1747.35730	530.32904	218.41165	-1650.03271	341.27374	81.91328	-1648.45825	296.46234	96.12069	-1712.26868	331.97977	90.63123	-1700.18628	286.11734	100.86488	-1618.16785	125.51537	123.76040	-1654.21497	138.42586	210.65585	-1549.28894	95.84558	176.27750	-1780.12939	57.98655	200.35548	-1793.29272	83.40209	154.95367	-1732.92810	53.94424	91.89079
